<?xml version="1.0" encoding="UTF-8" standalone="no"?>
<!-- Created with Inkscape (http://www.inkscape.org/) -->

<svg
   xmlns:dc="http://purl.org/dc/elements/1.1/"
   xmlns:cc="http://creativecommons.org/ns#"
   xmlns:rdf="http://www.w3.org/1999/02/22-rdf-syntax-ns#"
   xmlns:svg="http://www.w3.org/2000/svg"
   xmlns="http://www.w3.org/2000/svg"
   xmlns:sodipodi="http://sodipodi.sourceforge.net/DTD/sodipodi-0.dtd"
   xmlns:inkscape="http://www.inkscape.org/namespaces/inkscape"
   width="300mm"
   height="100mm"
   viewBox="0 0 300 100"
   version="1.1"
   id="svg8"
   inkscape:version="0.92.4 5da689c313, 2019-01-14"
   sodipodi:docname="knit-rider-logo.svg">
  <defs
     id="defs2" />
  <sodipodi:namedview
     id="base"
     pagecolor="#ffffff"
     bordercolor="#666666"
     borderopacity="1.0"
     inkscape:pageopacity="0.0"
     inkscape:pageshadow="2"
     inkscape:zoom="0.35"
     inkscape:cx="1006.1356"
     inkscape:cy="762.24836"
     inkscape:document-units="mm"
     inkscape:current-layer="layer1"
     showgrid="false"
     inkscape:window-width="1920"
     inkscape:window-height="1062"
     inkscape:window-x="1280"
     inkscape:window-y="18"
     inkscape:window-maximized="0" />
  <metadata
     id="metadata5">
    <rdf:RDF>
      <cc:Work
         rdf:about="">
        <dc:format>image/svg+xml</dc:format>
        <dc:type
           rdf:resource="http://purl.org/dc/dcmitype/StillImage" />
        <dc:title></dc:title>
      </cc:Work>
    </rdf:RDF>
  </metadata>
  <g
     inkscape:label="Layer 1"
     inkscape:groupmode="layer"
     id="layer1"
     transform="translate(0,-197)">
    <path
       style="fill:#000000;stroke-width:0.59544462"
       d="m 38.229296,290.53884 0.871393,-3.12608 0.523512,-10.12257 0.523488,-10.12256 0.018,-28.58135 0.018,-28.58134 2.706653,-0.18184 2.706654,-0.18162 0.275416,0.77719 0.275438,0.77717 2.054616,14.1954 2.05463,14.19541 0.379456,0.37946 0.379457,0.37946 -0.07359,-14.87259 -0.07359,-14.87258 0.03713,-0.59544 0.03713,-0.59546 2.895583,0.20075 2.89556,0.20074 -0.258178,35.52589 -0.258154,35.52589 -0.223475,0.71046 -0.223475,0.71046 -3.008917,-0.0232 -3.008896,-0.0234 v -2.70014 -2.70018 l -0.863516,-5.72779 -0.863508,-5.72777 -0.981915,-7.14533 -0.981916,-7.14534 -0.23862,-0.24812 -0.238621,-0.24809 v 15.63775 15.63776 l -1.202622,1.68893 -1.202621,1.68891 -0.738659,1.67795 -0.738682,1.67795 -1.780235,2.50804 -1.780235,2.50803 -0.39269,0.0225 -0.392689,0.0225 0.871393,-3.12608 z m 251.593824,-1.21383 -0.63678,-0.76727 -1.9505,-4.14515 -1.95053,-4.14517 -0.0158,-16.24467 -0.0157,-16.24464 -0.89316,-0.55527 -0.89318,-0.55526 -0.15843,16.42027 -0.15844,16.42032 -1.33022,-0.35655 -1.3302,-0.35654 -1.84593,-0.009 -1.84591,-0.009 0.0596,-36.33552 0.0596,-36.33551 1.48862,0.28606 1.48859,0.28604 4.02524,0.39278 4.02522,0.39278 1.44658,1.71915 1.44658,1.71916 0.42246,2.81727 0.42249,2.81724 -0.46872,11.32172 -0.46873,11.32175 0.0925,2.08405 0.0925,2.08405 0.26185,19.01598 0.26182,19.016 0.62107,2.89592 0.62107,2.89592 v 1.45931 1.45929 h -1.118 -1.11796 l -0.63678,-0.76724 z m -4.98715,-54.72821 0.71453,-0.71453 v -7.573 -7.573 l -0.36143,-0.94186 -0.36143,-0.94188 h -0.82946 -0.82945 v 9.22941 9.22939 h 0.47634 0.47637 z m -117.0859,52.89533 -1.39099,-0.77158 -1.82832,-3.22656 -1.82833,-3.22657 -0.0556,-15.89568 -0.0556,-15.89566 -0.73438,-0.73711 -0.73438,-0.73708 -0.44187,0.44186 -0.44186,0.44187 -0.0157,16.04156 -0.0158,16.04156 -3.12607,4.7e-4 -3.12606,4.9e-4 -0.0157,-1.04202 -0.0158,-1.04203 0.14336,-20.54287 0.14358,-20.54283 -0.009,-14.14183 -0.009,-14.1418 h 5.52538 5.52538 l 1.35185,2.53065 1.35185,2.53064 -0.0135,12.80205 -0.0135,12.80206 -0.13616,2.67949 -0.13615,2.67951 0.52871,19.35196 0.52871,19.35197 0.44258,2.53064 0.44258,2.53065 -0.22725,-0.0203 -0.22726,-0.0203 -1.39101,-0.77159 z m -5.38351,-52.82039 0.40365,-1.44446 0.0594,-6.28195 0.0594,-6.28194 -0.71453,-0.71453 -0.71454,-0.71453 h -0.47636 -0.47636 v 8.68355 8.68357 l 0.7279,-0.24262 0.72788,-0.24263 z m -154.0651697,46.81975 -0.3565016,-0.929 0.3504703,-1.39635 0.3504478,-1.39634 0.042759,-34.03131 0.042759,-34.03129 h 2.9326032 2.93258 l 0.162261,10.86687 0.162261,10.86688 1.637486,-8.36689 1.637463,-8.36688 0.009,-1.75568 0.009,-1.75569 0.438847,-0.68964 0.438825,-0.68967 2.08268,-0.36498 2.082702,-0.36499 0.878145,0.57705 0.878145,0.57708 -1.110734,5.53886 -1.110756,5.53886 -1.990567,9.22939 -1.99059,9.22939 -0.009,2.79314 -0.009,2.79311 2.419556,12.68843 2.419557,12.68845 0.927971,4.8893 0.927971,4.88933 -0.351618,0.91629 -0.351618,0.91626 h -2.613683 -2.613347 l -0.367664,-3.42379 -0.367664,-3.42384 -1.80121,-9.20455 -1.801232,-9.20454 v -1.06687 -1.06687 H 14.63542 14.051168 l -0.16001,13.54636 -0.160011,13.54639 -2.536087,0.18341 -2.5360878,0.18342 z m 66.7936657,-0.33091 -0.164287,-0.29772 0.468127,-7.14536 0.468126,-7.14533 0.04028,-28.25066 0.04028,-28.25065 0.51775,-0.51773 0.51775,-0.51775 2.611524,0.18702 2.611525,0.18701 -0.02701,2.53064 -0.02701,2.53065 -0.121752,33.62604 -0.121752,33.62608 -3.324528,-0.13233 -3.324528,-0.13233 z m 28.474154,-31.17903 0.41638,-30.65248 -1.2567,-0.39885 -1.25672,-0.39888 -1.44563,0.36285 -1.445655,0.36282 v -4.95353 -4.95355 l 0.714534,-0.71453 0.714531,-0.71454 h 7.55225 7.55225 l 0.35904,1.33977 0.35905,1.33975 0.009,2.75393 0.009,2.75392 -0.37565,1.8782 -0.37563,1.87819 -1.38975,-0.91059 -1.3898,-0.9106 h -0.90277 -0.90278 l -0.29948,1.33975 -0.29949,1.33976 -0.15844,29.77222 -0.15843,29.77226 -3.22189,0.18342 -3.2219,0.18319 z m 109.57071,26.56431 0.35059,-3.4238 0.15438,-32.59997 0.15439,-32.59997 4.22812,-6.5e-4 4.2281,-6.5e-4 1.82716,0.63694 1.82713,0.63695 1.05371,2.48915 1.05371,2.48914 0.2277,19.35193 0.22773,19.35196 -0.56357,10.718 -0.56355,10.718 -1.05019,2.17502 -1.05022,2.17502 -1.43397,0.65336 -1.43396,0.65337 h -4.79401 -4.79399 l 0.35059,-3.42384 z m 9.35976,-32.97877 0.16136,-24.0783 -0.44663,-0.72268 -0.44664,-0.72268 h -0.85802 -0.85803 v 25.20717 25.20715 l 0.36861,0.36861 0.36861,0.3686 0.7748,-0.7748 0.77478,-0.7748 z m -34.96029,33.57425 0.36755,-2.23294 0.61745,-10.71801 0.61742,-10.718 -0.17554,-22.47839 -0.17553,-22.4784 2.82836,3.6e-4 2.82836,3.6e-4 0.009,0.44657 0.009,0.44659 0.13931,34.98239 0.1393,34.9824 h -3.78667 l -3.78666,-3e-5 0.36753,-2.2329 z m 58.16289,-33.72569 0.0475,-36.12835 6.65169,0.16789 6.65166,0.16789 0.17037,5.80559 0.17036,5.80559 h -0.5674 -0.56737 l -0.21807,-0.65402 -0.21808,-0.65402 -2.80884,-0.31657 -2.80885,-0.3166 v 9.60454 9.60455 h 1.75676 1.75674 l 0.58794,-1.04203 0.58794,-1.04202 0.70673,0.69941 0.70672,0.69941 -0.42453,6.22848 -0.42453,6.2285 -2.33557,-0.91743 -2.33555,-0.91742 -0.25446,0.25444 -0.25444,0.25447 -0.24515,9.7921 -0.24513,9.7921 0.27772,1.06201 0.27771,1.06199 h 2.90778 2.90778 v -0.63057 -0.63059 l 0.59544,0.368 0.59543,0.36801 v 5.32387 5.32387 h -3.18758 -3.18761 l -3.6605,0.38261 -3.66053,0.3826 0.0475,-36.12837 z"
       id="path29"
       inkscape:connector-curvature="0" />
  </g>
</svg>
