<?xml version="1.0" encoding="UTF-8" standalone="no"?>
<!-- Created with Inkscape (http://www.inkscape.org/) -->

<svg
   xmlns:dc="http://purl.org/dc/elements/1.1/"
   xmlns:cc="http://creativecommons.org/ns#"
   xmlns:rdf="http://www.w3.org/1999/02/22-rdf-syntax-ns#"
   xmlns:svg="http://www.w3.org/2000/svg"
   xmlns="http://www.w3.org/2000/svg"
   xmlns:sodipodi="http://sodipodi.sourceforge.net/DTD/sodipodi-0.dtd"
   xmlns:inkscape="http://www.inkscape.org/namespaces/inkscape"
   width="150mm"
   height="150mm"
   viewBox="0 0 150 150"
   version="1.1"
   id="svg8"
   inkscape:version="0.92.4 5da689c313, 2019-01-14"
   sodipodi:docname="knit-rider-logo-compact.svg">
  <defs
     id="defs2" />
  <sodipodi:namedview
     id="base"
     pagecolor="#ffffff"
     bordercolor="#666666"
     borderopacity="1.0"
     inkscape:pageopacity="0.0"
     inkscape:pageshadow="2"
     inkscape:zoom="0.7"
     inkscape:cx="407.65067"
     inkscape:cy="16.868715"
     inkscape:document-units="mm"
     inkscape:current-layer="layer1"
     showgrid="false"
     inkscape:window-width="1920"
     inkscape:window-height="1062"
     inkscape:window-x="1280"
     inkscape:window-y="18"
     inkscape:window-maximized="0" />
  <metadata
     id="metadata5">
    <rdf:RDF>
      <cc:Work
         rdf:about="">
        <dc:format>image/svg+xml</dc:format>
        <dc:type
           rdf:resource="http://purl.org/dc/dcmitype/StillImage" />
        <dc:title></dc:title>
      </cc:Work>
    </rdf:RDF>
  </metadata>
  <g
     inkscape:label="Layer 1"
     inkscape:groupmode="layer"
     id="layer1"
     transform="translate(0,-147)">
    <path
       style="fill:#000000;stroke-width:0.5431149"
       d="m 54.690924,222.80191 0.794812,-2.85136 0.477504,-9.23296 0.477482,-9.23296 0.01642,-26.06951 0.01642,-26.06952 2.468783,-0.16586 2.468784,-0.16566 0.251211,0.70889 0.251232,0.70887 1.87405,12.94786 1.874062,12.94786 0.346108,0.34612 0.346109,0.34611 -0.06712,-13.56554 -0.06713,-13.56553 0.03386,-0.54311 0.03386,-0.54313 2.64111,0.18312 2.641089,0.1831 -0.23549,32.40375 -0.235466,32.40375 -0.203835,0.64802 -0.203836,0.64803 -2.744483,-0.0211 -2.744463,-0.0214 v -2.46284 -2.46288 l -0.787628,-5.22441 -0.78762,-5.22439 -0.895621,-6.51738 -0.895621,-6.51738 -0.21765,-0.22631 -0.21765,-0.2263 v 14.26346 14.26346 l -1.096931,1.5405 -1.096932,1.54048 -0.673743,1.53048 -0.673764,1.5305 -1.623781,2.28762 -1.623782,2.28762 -0.35818,0.0205 -0.358177,0.0206 0.794812,-2.85136 z m 81.926326,73.01589 -0.58082,-0.69984 -1.77908,-3.78086 -1.77911,-3.78088 -0.0144,-14.81703 -0.0143,-14.81701 -0.81467,-0.50648 -0.81469,-0.50645 -0.1445,14.9772 -0.14452,14.97724 -1.21331,-0.32521 -1.2133,-0.3252 -1.6837,-0.008 -1.68369,-0.008 0.0543,-33.14223 0.0543,-33.14221 1.3578,0.26092 1.35777,0.26089 3.67149,0.35826 3.67146,0.35827 1.31945,1.56806 1.31945,1.56808 0.38533,2.56967 0.38536,2.56966 -0.42753,10.32673 -0.42753,10.32675 0.0843,1.90089 0.0843,1.9009 0.23884,17.34479 0.23881,17.34481 0.56649,2.64142 0.56649,2.64141 v 1.33107 1.33104 h -1.01975 -1.01971 l -0.58082,-0.69981 z m -4.54886,-49.91851 0.65174,-0.65174 v -6.90746 -6.90745 l -0.32967,-0.85909 -0.32967,-0.85911 h -0.75657 -0.75655 v 8.4183 8.41828 h 0.43448 0.43451 z m -106.795995,48.2467 -1.268745,-0.70376 -1.667641,-2.943 -1.66765,-2.94301 -0.05072,-14.49872 -0.05072,-14.49869 -0.66984,-0.67233 -0.66984,-0.6723 -0.403037,0.40303 -0.403028,0.40303 -0.01432,14.63177 -0.01441,14.63178 -2.851341,4.2e-4 -2.851331,4.6e-4 -0.01432,-0.95045 -0.01441,-0.95046 0.130761,-18.73748 0.130961,-18.73746 -0.0082,-12.899 -0.0082,-12.89897 h 5.039791 5.039791 l 1.233045,2.30825 1.233045,2.30823 -0.01232,11.67697 -0.01232,11.67697 -0.124193,2.444 -0.124185,2.44403 0.482245,17.65125 0.482246,17.65124 0.403685,2.30824 0.403684,2.30825 -0.207279,-0.0185 -0.207287,-0.0185 -1.268764,-0.70378 z m -4.910388,-48.17834 0.368176,-1.31753 0.05418,-5.72986 0.05418,-5.72987 -0.651735,-0.65174 -0.651744,-0.65173 h -0.434495 -0.434496 v 7.92041 7.92043 l 0.66393,-0.2213 0.663911,-0.2213 z m 7.031177,-31.41798 -0.32517,-0.84736 0.319669,-1.27363 0.319649,-1.27362 0.03901,-31.04053 0.039,-31.0405 h 2.674876 2.674855 l 0.148001,9.91184 0.148001,9.91187 1.493578,-7.63158 1.493557,-7.63157 0.0082,-1.60139 0.0082,-1.60139 0.40028,-0.62903 0.40026,-0.62906 1.899646,-0.3329 1.899667,-0.33292 0.800971,0.52634 0.800971,0.52636 -1.013119,5.05209 -1.013139,5.05208 -1.815629,8.41828 -1.81565,8.41828 -0.0082,2.54767 -0.0082,2.54765 2.206917,11.57333 2.206918,11.57334 0.846419,4.45961 0.846417,4.45963 -0.320717,0.83577 -0.320716,0.83574 H 40.04372 37.660043 l -0.335353,-3.1229 -0.335352,-3.12294 -1.642914,-8.39562 -1.642933,-8.39562 v -0.9731 -0.97311 h -0.532928 -0.532905 l -0.145948,12.35585 -0.145948,12.35589 -2.313207,0.1673 -2.313209,0.1673 z m 60.923611,-0.30183 -0.149849,-0.27156 0.426986,-6.5174 0.426987,-6.51737 0.03674,-25.7679 0.03674,-25.76788 0.472248,-0.47223 0.472249,-0.47225 2.382014,0.17058 2.382016,0.17058 -0.02463,2.30824 -0.02463,2.30824 -0.111053,30.67087 -0.111051,30.67091 -3.032358,-0.1207 -3.032357,-0.1207 z m 25.971755,-28.43891 0.37979,-27.95864 -1.14626,-0.36379 -1.14628,-0.36383 -1.31858,0.33096 -1.31861,0.33094 v -4.5182 -4.51822 l 0.65175,-0.65174 0.65173,-0.65173 h 6.88853 6.88853 l 0.32749,1.22202 0.3275,1.22201 0.008,2.5119 0.008,2.5119 -0.34263,1.71313 -0.34262,1.71313 -1.26762,-0.83056 -1.26766,-0.83058 h -0.82343 -0.82343 l -0.27316,1.22201 -0.27317,1.22203 -0.14453,27.15573 -0.1445,27.15577 -2.93874,0.1673 -2.93874,0.16709 z m -47.615321,98.35279 0.31978,-3.1229 0.140812,-29.73497 0.140822,-29.73498 3.856539,-5.9e-4 3.85652,-6e-4 1.666583,0.58097 1.666555,0.58098 0.961107,2.27039 0.961106,2.27038 0.207689,17.65122 0.207717,17.65125 -0.514042,9.77606 -0.514023,9.77606 -0.957897,1.98388 -0.957922,1.98386 -1.307948,0.59595 -1.307939,0.59595 h -4.372696 -4.372678 l 0.319779,-3.12294 z m 8.537193,-30.08048 0.14718,-21.96222 -0.407379,-0.65917 -0.407388,-0.65917 h -0.782614 -0.782623 v 22.99189 22.99185 l 0.336215,0.33622 0.336215,0.33621 0.706708,-0.70672 0.70669,-0.70671 z m -31.887861,30.62363 0.335249,-2.0367 0.563187,-9.77608 0.563159,-9.77606 -0.160113,-20.50291 -0.160104,-20.50293 2.579794,3.3e-4 2.579794,3.3e-4 0.0082,0.40732 0.0082,0.40735 0.127067,31.90801 0.127058,31.90803 h -3.453845 l -3.453875,-3e-5 0.33523,-2.03666 z m 53.051342,-30.76176 0.04332,-32.95327 6.067117,0.15313 6.06709,0.15314 0.15539,5.29537 0.1554,5.29538 h -0.51754 -0.51751 l -0.19891,-0.59654 -0.19891,-0.59654 -2.56199,-0.28875 -2.562,-0.28877 v 8.76046 8.76047 h 1.60237 1.60236 l 0.53627,-0.95046 0.53627,-0.95045 0.64462,0.63795 0.6446,0.63795 -0.38721,5.68109 -0.38722,5.68112 -2.13032,-0.8368 -2.13029,-0.8368 -0.23209,0.23208 -0.23208,0.23211 -0.22361,8.93153 -0.22359,8.93154 0.25332,0.96867 0.2533,0.96866 h 2.65223 2.65224 v -0.57514 -0.57518 l 0.5431,0.33566 0.54311,0.33567 v 4.85599 4.85599 h -2.90745 -2.90746 l -3.338811,0.34899 -3.33883,0.34897 0.04333,-32.95329 z"
       id="path29"
       inkscape:connector-curvature="0"
       sodipodi:nodetypes="cccccccccccccccccccccccccccccccccccccccccccccccccccccccccccccccccccccccccccccccccccccccccccccccccccccccccccccccccccccccccccccccccccccccccccccccccccccccccccccccccccccccccccccccccccccccccccccccccccccccccccccccccccccccccccccccccccccccccccccccccccccccccccccccccccccccccccccccccccccccccccccccccccccccccccccccccccccccccccccccccccccccccccccc" />
  </g>
</svg>
